<svg xmlns="http://www.w3.org/2000/svg" viewBox="0 0 307 111"><path stroke="#fff" stroke-width="3.5" d="M151 61.44c0-9.72 7.75-17.16 17.69-17.16s17.69 7.44 17.69 17.16-7.75 17.19-17.69 17.19S151 71.19 151 61.44zm28.59 0a10.92 10.92 0 1 0-10.93 10.94 10.82 10.82 0 0 0 10.9-10.94zm22.6-11.19V67.5c0 3.22 1.84 4.91 4.5 4.91h3.59V78h-5c-6.06 0-10.06-3.41-10.06-9.69V50.25h-5.41v-5.34h5.41v-9.16h7v9.16h8.16v5.34zm14.94-16.53A4.36 4.36 0 1 1 221.5 38a4.34 4.34 0 0 1-4.37-4.28zm.87 11.19h6.94V78H218zm14.53 16.53c0-9.72 7.75-17.16 17.69-17.16s17.69 7.44 17.69 17.16-7.75 17.19-17.69 17.19-17.69-7.44-17.69-17.19zm28.6 0a10.93 10.93 0 1 0-10.94 10.94 10.83 10.83 0 0 0 10.94-10.94zm43.65-3.56V78h-7V58.88c0-6.41-3.12-8.57-7.4-8.57-4.47 0-7.88 2.91-7.91 8.78V78h-7V44.91h7v4.72a11.26 11.26 0 0 1 9.94-5.35c7.25 0 12.37 4.56 12.37 13.6z" opacity=".5"/><path fill="#373a36" d="M151 61.44c0-9.72 7.75-17.16 17.69-17.16s17.69 7.44 17.69 17.16-7.75 17.19-17.69 17.19S151 71.19 151 61.44zm28.59 0a10.92 10.92 0 1 0-10.93 10.94 10.82 10.82 0 0 0 10.9-10.94zm22.6-11.19V67.5c0 3.22 1.84 4.91 4.5 4.91h3.59V78h-5c-6.06 0-10.06-3.41-10.06-9.69V50.25h-5.41v-5.34h5.41v-9.16h7v9.16h8.16v5.34zm14.94-16.53A4.36 4.36 0 1 1 221.5 38a4.34 4.34 0 0 1-4.37-4.28zm.87 11.19h6.94V78H218zm14.53 16.53c0-9.72 7.75-17.16 17.69-17.16s17.69 7.44 17.69 17.16-7.75 17.19-17.69 17.19-17.69-7.44-17.69-17.19zm28.6 0a10.93 10.93 0 1 0-10.94 10.94 10.83 10.83 0 0 0 10.94-10.94zm43.65-3.56V78h-7V58.88c0-6.41-3.12-8.57-7.4-8.57-4.47 0-7.88 2.91-7.91 8.78V78h-7V44.91h7v4.72a11.26 11.26 0 0 1 9.94-5.35c7.25 0 12.37 4.56 12.37 13.6z"/><path fill="#269" d="M114.33 69.93c-25.21 16.25-66.88-1.46-61.25-26.88C58 20.77 84.47 27.18 90.49 30.18s2.38-13-11.58-17.75C60 5.93 36.85 7.31 29.54 39.93c-5 22.29 4.79 53.54 42.39 54s42.4-24 42.4-24z"/><path fill="#55acee" d="M123 75c0-7.16-9.18-7.78-13.33-3.73C99.65 81 85 84.62 65.3 80.78c-34.17-6.66-34.47-46.71-11.11-58.13 12.64-6.18 27.63 1.13 33.33 5.51 5 3.81 14.45 8.87 14 2.51-1.06-13.54-27.6-42.54-63.15-24.2S3 66.18 3 73.68v24.16A13.25 13.25 0 0 0 16.41 111h93.33A13.12 13.12 0 0 0 123 97.84V75z"/></svg>